<mxfile host="app.diagrams.net" modified="2022-11-15T06:06:33.299Z" agent="5.0 (Windows NT 10.0; Win64; x64) AppleWebKit/537.36 (KHTML, like Gecko) Chrome/107.0.0.0 Safari/537.36" etag="8gSsPVwQw1QFUGfnGfsG" version="20.5.3" type="github">
  <diagram id="aS9pjdUC0Do7hMSleVWt" name="第 1 页">
    <mxGraphModel dx="1185" dy="635" grid="0" gridSize="10" guides="1" tooltips="1" connect="1" arrows="1" fold="1" page="1" pageScale="1" pageWidth="1654" pageHeight="1169" background="none" math="0" shadow="0">
      <root>
        <mxCell id="0" />
        <mxCell id="1" parent="0" />
        <mxCell id="eDFqkNTLr4-eCkODvhOK-7" value="HotSwappableTargetSource" style="swimlane;fontStyle=0;childLayout=stackLayout;horizontal=1;startSize=26;fillColor=#CCFFFF;horizontalStack=0;resizeParent=1;resizeParentMax=0;resizeLast=0;collapsible=1;marginBottom=0;direction=east;strokeColor=default;swimlaneLine=1;glass=0;rounded=0;shadow=0;" parent="1" vertex="1" collapsed="1">
          <mxGeometry x="375" y="212" width="196" height="30" as="geometry">
            <mxRectangle x="604" y="162" width="183" height="52" as="alternateBounds" />
          </mxGeometry>
        </mxCell>
        <mxCell id="eDFqkNTLr4-eCkODvhOK-8" value="" style="text;strokeColor=none;fillColor=#CCFFFF;align=left;verticalAlign=top;spacingLeft=4;spacingRight=4;overflow=hidden;rotatable=0;points=[[0,0.5],[1,0.5]];portConstraint=eastwest;" parent="eDFqkNTLr4-eCkODvhOK-7" vertex="1">
          <mxGeometry y="26" width="183" height="26" as="geometry" />
        </mxCell>
        <mxCell id="rqdoCPFN9nggNmxES_CL-17" value="" style="endArrow=classic;html=1;rounded=0;dashed=1;exitX=0;exitY=0.5;exitDx=0;exitDy=0;entryX=1;entryY=0.5;entryDx=0;entryDy=0;" parent="1" edge="1" target="tkmbO6Z0D_rgaQslbpw0-1" source="mKCezqykJDFJHDQn1Z-V-11">
          <mxGeometry width="50" height="50" relative="1" as="geometry">
            <mxPoint x="88" y="129" as="sourcePoint" />
            <mxPoint x="209" y="59" as="targetPoint" />
          </mxGeometry>
        </mxCell>
        <mxCell id="rqdoCPFN9nggNmxES_CL-21" value="" style="endArrow=classic;html=1;rounded=0;exitX=0.5;exitY=0;exitDx=0;exitDy=0;entryX=0.75;entryY=1;entryDx=0;entryDy=0;" parent="1" edge="1" target="mKCezqykJDFJHDQn1Z-V-7" source="mKCezqykJDFJHDQn1Z-V-17">
          <mxGeometry width="50" height="50" relative="1" as="geometry">
            <mxPoint x="1206" y="186" as="sourcePoint" />
            <mxPoint x="1326" y="112" as="targetPoint" />
          </mxGeometry>
        </mxCell>
        <mxCell id="hXy3NdqEf34I_91X7ZeJ-1" value="TargetClassAware" style="swimlane;fontStyle=0;childLayout=stackLayout;horizontal=1;startSize=26;fillColor=#CCFFCC;horizontalStack=0;resizeParent=1;resizeParentMax=0;resizeLast=0;collapsible=1;marginBottom=0;direction=east;strokeColor=default;swimlaneLine=1;glass=0;rounded=0;shadow=0;" parent="1" vertex="1" collapsed="1">
          <mxGeometry x="683" y="47" width="170" height="30" as="geometry">
            <mxRectangle x="604" y="162" width="183" height="52" as="alternateBounds" />
          </mxGeometry>
        </mxCell>
        <mxCell id="hXy3NdqEf34I_91X7ZeJ-2" value="" style="text;strokeColor=none;fillColor=#CCFFFF;align=left;verticalAlign=top;spacingLeft=4;spacingRight=4;overflow=hidden;rotatable=0;points=[[0,0.5],[1,0.5]];portConstraint=eastwest;" parent="hXy3NdqEf34I_91X7ZeJ-1" vertex="1">
          <mxGeometry y="26" width="183" height="26" as="geometry" />
        </mxCell>
        <mxCell id="tkmbO6Z0D_rgaQslbpw0-1" value="TargetSource" style="swimlane;fontStyle=0;childLayout=stackLayout;horizontal=1;startSize=26;fillColor=#CCFFCC;horizontalStack=0;resizeParent=1;resizeParentMax=0;resizeLast=0;collapsible=1;marginBottom=0;direction=east;strokeColor=default;swimlaneLine=1;glass=0;rounded=0;shadow=0;" parent="1" vertex="1" collapsed="1">
          <mxGeometry x="683" y="140" width="170" height="30" as="geometry">
            <mxRectangle x="604" y="162" width="183" height="52" as="alternateBounds" />
          </mxGeometry>
        </mxCell>
        <mxCell id="tkmbO6Z0D_rgaQslbpw0-2" value="" style="text;strokeColor=none;fillColor=#CCFFFF;align=left;verticalAlign=top;spacingLeft=4;spacingRight=4;overflow=hidden;rotatable=0;points=[[0,0.5],[1,0.5]];portConstraint=eastwest;" parent="tkmbO6Z0D_rgaQslbpw0-1" vertex="1">
          <mxGeometry y="26" width="183" height="26" as="geometry" />
        </mxCell>
        <mxCell id="mKCezqykJDFJHDQn1Z-V-1" value="EmptyTargetSource" style="swimlane;fontStyle=0;childLayout=stackLayout;horizontal=1;startSize=26;fillColor=#CCFFFF;horizontalStack=0;resizeParent=1;resizeParentMax=0;resizeLast=0;collapsible=1;marginBottom=0;direction=east;strokeColor=default;swimlaneLine=1;glass=0;rounded=0;shadow=0;" vertex="1" collapsed="1" parent="1">
          <mxGeometry x="401" y="140" width="170" height="30" as="geometry">
            <mxRectangle x="604" y="162" width="183" height="52" as="alternateBounds" />
          </mxGeometry>
        </mxCell>
        <mxCell id="mKCezqykJDFJHDQn1Z-V-2" value="" style="text;strokeColor=none;fillColor=#CCFFFF;align=left;verticalAlign=top;spacingLeft=4;spacingRight=4;overflow=hidden;rotatable=0;points=[[0,0.5],[1,0.5]];portConstraint=eastwest;" vertex="1" parent="mKCezqykJDFJHDQn1Z-V-1">
          <mxGeometry y="26" width="183" height="26" as="geometry" />
        </mxCell>
        <mxCell id="mKCezqykJDFJHDQn1Z-V-3" value="AbstractRefreshableTargetSource" style="swimlane;fontStyle=0;childLayout=stackLayout;horizontal=1;startSize=26;fillColor=#CCFFFF;horizontalStack=0;resizeParent=1;resizeParentMax=0;resizeLast=0;collapsible=1;marginBottom=0;direction=east;strokeColor=default;swimlaneLine=1;glass=0;rounded=0;shadow=0;" vertex="1" collapsed="1" parent="1">
          <mxGeometry x="349" y="293" width="222" height="30" as="geometry">
            <mxRectangle x="604" y="162" width="183" height="52" as="alternateBounds" />
          </mxGeometry>
        </mxCell>
        <mxCell id="mKCezqykJDFJHDQn1Z-V-4" value="" style="text;strokeColor=none;fillColor=#CCFFFF;align=left;verticalAlign=top;spacingLeft=4;spacingRight=4;overflow=hidden;rotatable=0;points=[[0,0.5],[1,0.5]];portConstraint=eastwest;" vertex="1" parent="mKCezqykJDFJHDQn1Z-V-3">
          <mxGeometry y="26" width="183" height="26" as="geometry" />
        </mxCell>
        <mxCell id="mKCezqykJDFJHDQn1Z-V-5" value="AbstractLazyCreationTargetSource" style="swimlane;fontStyle=0;childLayout=stackLayout;horizontal=1;startSize=26;fillColor=#CCFFFF;horizontalStack=0;resizeParent=1;resizeParentMax=0;resizeLast=0;collapsible=1;marginBottom=0;direction=east;strokeColor=default;swimlaneLine=1;glass=0;rounded=0;shadow=0;" vertex="1" collapsed="1" parent="1">
          <mxGeometry x="657.5" y="293" width="221" height="30" as="geometry">
            <mxRectangle x="604" y="162" width="183" height="52" as="alternateBounds" />
          </mxGeometry>
        </mxCell>
        <mxCell id="mKCezqykJDFJHDQn1Z-V-6" value="" style="text;strokeColor=none;fillColor=#CCFFFF;align=left;verticalAlign=top;spacingLeft=4;spacingRight=4;overflow=hidden;rotatable=0;points=[[0,0.5],[1,0.5]];portConstraint=eastwest;" vertex="1" parent="mKCezqykJDFJHDQn1Z-V-5">
          <mxGeometry y="26" width="183" height="26" as="geometry" />
        </mxCell>
        <mxCell id="mKCezqykJDFJHDQn1Z-V-7" value="AbstractBeanFactoryBasedTargetSource" style="swimlane;fontStyle=0;childLayout=stackLayout;horizontal=1;startSize=26;fillColor=#CCFFFF;horizontalStack=0;resizeParent=1;resizeParentMax=0;resizeLast=0;collapsible=1;marginBottom=0;direction=east;strokeColor=default;swimlaneLine=1;glass=0;rounded=0;shadow=0;" vertex="1" collapsed="1" parent="1">
          <mxGeometry x="965" y="293" width="259" height="30" as="geometry">
            <mxRectangle x="604" y="162" width="183" height="52" as="alternateBounds" />
          </mxGeometry>
        </mxCell>
        <mxCell id="mKCezqykJDFJHDQn1Z-V-8" value="" style="text;strokeColor=none;fillColor=#CCFFFF;align=left;verticalAlign=top;spacingLeft=4;spacingRight=4;overflow=hidden;rotatable=0;points=[[0,0.5],[1,0.5]];portConstraint=eastwest;" vertex="1" parent="mKCezqykJDFJHDQn1Z-V-7">
          <mxGeometry y="26" width="183" height="26" as="geometry" />
        </mxCell>
        <mxCell id="mKCezqykJDFJHDQn1Z-V-9" value="JndiObjectTargetSource" style="swimlane;fontStyle=0;childLayout=stackLayout;horizontal=1;startSize=26;fillColor=#CCFFFF;horizontalStack=0;resizeParent=1;resizeParentMax=0;resizeLast=0;collapsible=1;marginBottom=0;direction=east;strokeColor=default;swimlaneLine=1;glass=0;rounded=0;shadow=0;" vertex="1" collapsed="1" parent="1">
          <mxGeometry x="965" y="212" width="170" height="30" as="geometry">
            <mxRectangle x="604" y="162" width="183" height="52" as="alternateBounds" />
          </mxGeometry>
        </mxCell>
        <mxCell id="mKCezqykJDFJHDQn1Z-V-10" value="" style="text;strokeColor=none;fillColor=#CCFFFF;align=left;verticalAlign=top;spacingLeft=4;spacingRight=4;overflow=hidden;rotatable=0;points=[[0,0.5],[1,0.5]];portConstraint=eastwest;" vertex="1" parent="mKCezqykJDFJHDQn1Z-V-9">
          <mxGeometry y="26" width="183" height="26" as="geometry" />
        </mxCell>
        <mxCell id="mKCezqykJDFJHDQn1Z-V-11" value="SingletonTargetSource" style="swimlane;fontStyle=0;childLayout=stackLayout;horizontal=1;startSize=26;fillColor=#CCFFFF;horizontalStack=0;resizeParent=1;resizeParentMax=0;resizeLast=0;collapsible=1;marginBottom=0;direction=east;strokeColor=default;swimlaneLine=1;glass=0;rounded=0;shadow=0;" vertex="1" collapsed="1" parent="1">
          <mxGeometry x="965" y="140" width="170" height="30" as="geometry">
            <mxRectangle x="604" y="162" width="183" height="52" as="alternateBounds" />
          </mxGeometry>
        </mxCell>
        <mxCell id="mKCezqykJDFJHDQn1Z-V-12" value="" style="text;strokeColor=none;fillColor=#CCFFFF;align=left;verticalAlign=top;spacingLeft=4;spacingRight=4;overflow=hidden;rotatable=0;points=[[0,0.5],[1,0.5]];portConstraint=eastwest;" vertex="1" parent="mKCezqykJDFJHDQn1Z-V-11">
          <mxGeometry y="26" width="183" height="26" as="geometry" />
        </mxCell>
        <mxCell id="mKCezqykJDFJHDQn1Z-V-13" value="BeanFactoryRefreshableTargetSource" style="swimlane;fontStyle=0;childLayout=stackLayout;horizontal=1;startSize=26;fillColor=#CCFFFF;horizontalStack=0;resizeParent=1;resizeParentMax=0;resizeLast=0;collapsible=1;marginBottom=0;direction=east;strokeColor=default;swimlaneLine=1;glass=0;rounded=0;shadow=0;" vertex="1" collapsed="1" parent="1">
          <mxGeometry x="337.5" y="376" width="245" height="30" as="geometry">
            <mxRectangle x="604" y="162" width="183" height="52" as="alternateBounds" />
          </mxGeometry>
        </mxCell>
        <mxCell id="mKCezqykJDFJHDQn1Z-V-14" value="" style="text;strokeColor=none;fillColor=#CCFFFF;align=left;verticalAlign=top;spacingLeft=4;spacingRight=4;overflow=hidden;rotatable=0;points=[[0,0.5],[1,0.5]];portConstraint=eastwest;" vertex="1" parent="mKCezqykJDFJHDQn1Z-V-13">
          <mxGeometry y="26" width="183" height="26" as="geometry" />
        </mxCell>
        <mxCell id="mKCezqykJDFJHDQn1Z-V-15" value="RefreshableScriptTargetSource" style="swimlane;fontStyle=0;childLayout=stackLayout;horizontal=1;startSize=26;fillColor=#CCFFFF;horizontalStack=0;resizeParent=1;resizeParentMax=0;resizeLast=0;collapsible=1;marginBottom=0;direction=east;strokeColor=default;swimlaneLine=1;glass=0;rounded=0;shadow=0;" vertex="1" collapsed="1" parent="1">
          <mxGeometry x="356" y="459" width="208" height="30" as="geometry">
            <mxRectangle x="604" y="162" width="183" height="52" as="alternateBounds" />
          </mxGeometry>
        </mxCell>
        <mxCell id="mKCezqykJDFJHDQn1Z-V-16" value="" style="text;strokeColor=none;fillColor=#CCFFFF;align=left;verticalAlign=top;spacingLeft=4;spacingRight=4;overflow=hidden;rotatable=0;points=[[0,0.5],[1,0.5]];portConstraint=eastwest;" vertex="1" parent="mKCezqykJDFJHDQn1Z-V-15">
          <mxGeometry y="26" width="183" height="26" as="geometry" />
        </mxCell>
        <mxCell id="mKCezqykJDFJHDQn1Z-V-17" value="LazyInitTargetSource" style="swimlane;fontStyle=0;childLayout=stackLayout;horizontal=1;startSize=26;fillColor=#CCFFFF;horizontalStack=0;resizeParent=1;resizeParentMax=0;resizeLast=0;collapsible=1;marginBottom=0;direction=east;strokeColor=default;swimlaneLine=1;glass=0;rounded=0;shadow=0;" vertex="1" collapsed="1" parent="1">
          <mxGeometry x="1261" y="376" width="170" height="30" as="geometry">
            <mxRectangle x="604" y="162" width="183" height="52" as="alternateBounds" />
          </mxGeometry>
        </mxCell>
        <mxCell id="mKCezqykJDFJHDQn1Z-V-18" value="" style="text;strokeColor=none;fillColor=#CCFFFF;align=left;verticalAlign=top;spacingLeft=4;spacingRight=4;overflow=hidden;rotatable=0;points=[[0,0.5],[1,0.5]];portConstraint=eastwest;" vertex="1" parent="mKCezqykJDFJHDQn1Z-V-17">
          <mxGeometry y="26" width="183" height="26" as="geometry" />
        </mxCell>
        <mxCell id="mKCezqykJDFJHDQn1Z-V-19" value="AbstractPrototypeBasedTargetSource" style="swimlane;fontStyle=0;childLayout=stackLayout;horizontal=1;startSize=26;fillColor=#CCFFFF;horizontalStack=0;resizeParent=1;resizeParentMax=0;resizeLast=0;collapsible=1;marginBottom=0;direction=east;strokeColor=default;swimlaneLine=1;glass=0;rounded=0;shadow=0;" vertex="1" collapsed="1" parent="1">
          <mxGeometry x="976" y="376" width="237" height="30" as="geometry">
            <mxRectangle x="604" y="162" width="183" height="52" as="alternateBounds" />
          </mxGeometry>
        </mxCell>
        <mxCell id="mKCezqykJDFJHDQn1Z-V-20" value="" style="text;strokeColor=none;fillColor=#CCFFFF;align=left;verticalAlign=top;spacingLeft=4;spacingRight=4;overflow=hidden;rotatable=0;points=[[0,0.5],[1,0.5]];portConstraint=eastwest;" vertex="1" parent="mKCezqykJDFJHDQn1Z-V-19">
          <mxGeometry y="26" width="183" height="26" as="geometry" />
        </mxCell>
        <mxCell id="mKCezqykJDFJHDQn1Z-V-21" value="SimpleBeanTargetSource" style="swimlane;fontStyle=0;childLayout=stackLayout;horizontal=1;startSize=26;fillColor=#CCFFFF;horizontalStack=0;resizeParent=1;resizeParentMax=0;resizeLast=0;collapsible=1;marginBottom=0;direction=east;strokeColor=default;swimlaneLine=1;glass=0;rounded=0;shadow=0;" vertex="1" collapsed="1" parent="1">
          <mxGeometry x="753" y="376" width="170" height="30" as="geometry">
            <mxRectangle x="604" y="162" width="183" height="52" as="alternateBounds" />
          </mxGeometry>
        </mxCell>
        <mxCell id="mKCezqykJDFJHDQn1Z-V-22" value="" style="text;strokeColor=none;fillColor=#CCFFFF;align=left;verticalAlign=top;spacingLeft=4;spacingRight=4;overflow=hidden;rotatable=0;points=[[0,0.5],[1,0.5]];portConstraint=eastwest;" vertex="1" parent="mKCezqykJDFJHDQn1Z-V-21">
          <mxGeometry y="26" width="183" height="26" as="geometry" />
        </mxCell>
        <mxCell id="mKCezqykJDFJHDQn1Z-V-31" value="CommonsPool2TargetSource" style="swimlane;fontStyle=0;childLayout=stackLayout;horizontal=1;startSize=26;fillColor=#CCFFFF;horizontalStack=0;resizeParent=1;resizeParentMax=0;resizeLast=0;collapsible=1;marginBottom=0;direction=east;strokeColor=default;swimlaneLine=1;glass=0;rounded=0;shadow=0;" vertex="1" collapsed="1" parent="1">
          <mxGeometry x="999.25" y="539" width="190.5" height="30" as="geometry">
            <mxRectangle x="604" y="162" width="183" height="52" as="alternateBounds" />
          </mxGeometry>
        </mxCell>
        <mxCell id="mKCezqykJDFJHDQn1Z-V-32" value="" style="text;strokeColor=none;fillColor=#CCFFFF;align=left;verticalAlign=top;spacingLeft=4;spacingRight=4;overflow=hidden;rotatable=0;points=[[0,0.5],[1,0.5]];portConstraint=eastwest;" vertex="1" parent="mKCezqykJDFJHDQn1Z-V-31">
          <mxGeometry y="26" width="183" height="26" as="geometry" />
        </mxCell>
        <mxCell id="mKCezqykJDFJHDQn1Z-V-33" value="PrototypeTargetSource" style="swimlane;fontStyle=0;childLayout=stackLayout;horizontal=1;startSize=26;fillColor=#CCFFFF;horizontalStack=0;resizeParent=1;resizeParentMax=0;resizeLast=0;collapsible=1;marginBottom=0;direction=east;strokeColor=default;swimlaneLine=1;glass=0;rounded=0;shadow=0;" vertex="1" collapsed="1" parent="1">
          <mxGeometry x="1247" y="459" width="170" height="30" as="geometry">
            <mxRectangle x="604" y="162" width="183" height="52" as="alternateBounds" />
          </mxGeometry>
        </mxCell>
        <mxCell id="mKCezqykJDFJHDQn1Z-V-34" value="" style="text;strokeColor=none;fillColor=#CCFFFF;align=left;verticalAlign=top;spacingLeft=4;spacingRight=4;overflow=hidden;rotatable=0;points=[[0,0.5],[1,0.5]];portConstraint=eastwest;" vertex="1" parent="mKCezqykJDFJHDQn1Z-V-33">
          <mxGeometry y="26" width="183" height="26" as="geometry" />
        </mxCell>
        <mxCell id="mKCezqykJDFJHDQn1Z-V-35" value="AbstractPoolingTargetSource" style="swimlane;fontStyle=0;childLayout=stackLayout;horizontal=1;startSize=26;fillColor=#CCFFFF;horizontalStack=0;resizeParent=1;resizeParentMax=0;resizeLast=0;collapsible=1;marginBottom=0;direction=east;strokeColor=default;swimlaneLine=1;glass=0;rounded=0;shadow=0;" vertex="1" collapsed="1" parent="1">
          <mxGeometry x="998" y="459" width="193" height="30" as="geometry">
            <mxRectangle x="604" y="162" width="183" height="52" as="alternateBounds" />
          </mxGeometry>
        </mxCell>
        <mxCell id="mKCezqykJDFJHDQn1Z-V-36" value="" style="text;strokeColor=none;fillColor=#CCFFFF;align=left;verticalAlign=top;spacingLeft=4;spacingRight=4;overflow=hidden;rotatable=0;points=[[0,0.5],[1,0.5]];portConstraint=eastwest;" vertex="1" parent="mKCezqykJDFJHDQn1Z-V-35">
          <mxGeometry y="26" width="183" height="26" as="geometry" />
        </mxCell>
        <mxCell id="mKCezqykJDFJHDQn1Z-V-37" value="ThreadLocalTargetSource" style="swimlane;fontStyle=0;childLayout=stackLayout;horizontal=1;startSize=26;fillColor=#CCFFFF;horizontalStack=0;resizeParent=1;resizeParentMax=0;resizeLast=0;collapsible=1;marginBottom=0;direction=east;strokeColor=default;swimlaneLine=1;glass=0;rounded=0;shadow=0;" vertex="1" collapsed="1" parent="1">
          <mxGeometry x="780" y="459" width="170" height="30" as="geometry">
            <mxRectangle x="604" y="162" width="183" height="52" as="alternateBounds" />
          </mxGeometry>
        </mxCell>
        <mxCell id="mKCezqykJDFJHDQn1Z-V-38" value="" style="text;strokeColor=none;fillColor=#CCFFFF;align=left;verticalAlign=top;spacingLeft=4;spacingRight=4;overflow=hidden;rotatable=0;points=[[0,0.5],[1,0.5]];portConstraint=eastwest;" vertex="1" parent="mKCezqykJDFJHDQn1Z-V-37">
          <mxGeometry y="26" width="183" height="26" as="geometry" />
        </mxCell>
        <mxCell id="mKCezqykJDFJHDQn1Z-V-39" value="" style="endArrow=classic;html=1;rounded=0;dashed=1;exitX=0;exitY=0.5;exitDx=0;exitDy=0;entryX=1;entryY=1;entryDx=0;entryDy=0;" edge="1" parent="1" source="mKCezqykJDFJHDQn1Z-V-9" target="tkmbO6Z0D_rgaQslbpw0-1">
          <mxGeometry width="50" height="50" relative="1" as="geometry">
            <mxPoint x="98" y="139" as="sourcePoint" />
            <mxPoint x="219" y="69" as="targetPoint" />
          </mxGeometry>
        </mxCell>
        <mxCell id="mKCezqykJDFJHDQn1Z-V-40" value="" style="endArrow=classic;html=1;rounded=0;dashed=1;exitX=0;exitY=0;exitDx=0;exitDy=0;entryX=0.75;entryY=1;entryDx=0;entryDy=0;" edge="1" parent="1" source="mKCezqykJDFJHDQn1Z-V-7" target="tkmbO6Z0D_rgaQslbpw0-1">
          <mxGeometry width="50" height="50" relative="1" as="geometry">
            <mxPoint x="108" y="149" as="sourcePoint" />
            <mxPoint x="229" y="79" as="targetPoint" />
          </mxGeometry>
        </mxCell>
        <mxCell id="mKCezqykJDFJHDQn1Z-V-41" value="" style="endArrow=classic;html=1;rounded=0;dashed=1;exitX=0.5;exitY=0;exitDx=0;exitDy=0;entryX=0.5;entryY=1;entryDx=0;entryDy=0;" edge="1" parent="1" source="mKCezqykJDFJHDQn1Z-V-5" target="tkmbO6Z0D_rgaQslbpw0-1">
          <mxGeometry width="50" height="50" relative="1" as="geometry">
            <mxPoint x="118" y="159" as="sourcePoint" />
            <mxPoint x="239" y="89" as="targetPoint" />
          </mxGeometry>
        </mxCell>
        <mxCell id="mKCezqykJDFJHDQn1Z-V-42" value="" style="endArrow=classic;html=1;rounded=0;dashed=1;exitX=1;exitY=0;exitDx=0;exitDy=0;entryX=0.25;entryY=1;entryDx=0;entryDy=0;" edge="1" parent="1" source="mKCezqykJDFJHDQn1Z-V-3" target="tkmbO6Z0D_rgaQslbpw0-1">
          <mxGeometry width="50" height="50" relative="1" as="geometry">
            <mxPoint x="128" y="169" as="sourcePoint" />
            <mxPoint x="249" y="99" as="targetPoint" />
          </mxGeometry>
        </mxCell>
        <mxCell id="mKCezqykJDFJHDQn1Z-V-43" value="" style="endArrow=classic;html=1;rounded=0;dashed=1;exitX=1;exitY=0.5;exitDx=0;exitDy=0;entryX=0;entryY=1;entryDx=0;entryDy=0;" edge="1" parent="1" source="eDFqkNTLr4-eCkODvhOK-7" target="tkmbO6Z0D_rgaQslbpw0-1">
          <mxGeometry width="50" height="50" relative="1" as="geometry">
            <mxPoint x="138" y="179" as="sourcePoint" />
            <mxPoint x="259" y="109" as="targetPoint" />
          </mxGeometry>
        </mxCell>
        <mxCell id="mKCezqykJDFJHDQn1Z-V-44" value="" style="endArrow=classic;html=1;rounded=0;dashed=1;exitX=1;exitY=0.5;exitDx=0;exitDy=0;entryX=0;entryY=0.5;entryDx=0;entryDy=0;" edge="1" parent="1" source="mKCezqykJDFJHDQn1Z-V-1" target="tkmbO6Z0D_rgaQslbpw0-1">
          <mxGeometry width="50" height="50" relative="1" as="geometry">
            <mxPoint x="148" y="189" as="sourcePoint" />
            <mxPoint x="269" y="119" as="targetPoint" />
          </mxGeometry>
        </mxCell>
        <mxCell id="mKCezqykJDFJHDQn1Z-V-45" value="" style="endArrow=classic;html=1;rounded=0;exitX=0.5;exitY=0;exitDx=0;exitDy=0;entryX=0.25;entryY=1;entryDx=0;entryDy=0;" edge="1" parent="1" source="mKCezqykJDFJHDQn1Z-V-21" target="mKCezqykJDFJHDQn1Z-V-7">
          <mxGeometry width="50" height="50" relative="1" as="geometry">
            <mxPoint x="1216" y="196" as="sourcePoint" />
            <mxPoint x="1336" y="122" as="targetPoint" />
          </mxGeometry>
        </mxCell>
        <mxCell id="mKCezqykJDFJHDQn1Z-V-46" value="" style="endArrow=classic;html=1;rounded=0;exitX=0.5;exitY=0;exitDx=0;exitDy=0;entryX=0.5;entryY=1;entryDx=0;entryDy=0;" edge="1" parent="1" source="mKCezqykJDFJHDQn1Z-V-19" target="mKCezqykJDFJHDQn1Z-V-7">
          <mxGeometry width="50" height="50" relative="1" as="geometry">
            <mxPoint x="1226" y="206" as="sourcePoint" />
            <mxPoint x="1346" y="132" as="targetPoint" />
          </mxGeometry>
        </mxCell>
        <mxCell id="mKCezqykJDFJHDQn1Z-V-47" value="" style="endArrow=classic;html=1;rounded=0;exitX=0.5;exitY=0;exitDx=0;exitDy=0;entryX=0.75;entryY=1;entryDx=0;entryDy=0;" edge="1" parent="1" source="mKCezqykJDFJHDQn1Z-V-33" target="mKCezqykJDFJHDQn1Z-V-19">
          <mxGeometry width="50" height="50" relative="1" as="geometry">
            <mxPoint x="1236" y="216" as="sourcePoint" />
            <mxPoint x="1356" y="142" as="targetPoint" />
          </mxGeometry>
        </mxCell>
        <mxCell id="mKCezqykJDFJHDQn1Z-V-48" value="" style="endArrow=classic;html=1;rounded=0;exitX=0.5;exitY=0;exitDx=0;exitDy=0;entryX=0.5;entryY=1;entryDx=0;entryDy=0;" edge="1" parent="1" source="mKCezqykJDFJHDQn1Z-V-35" target="mKCezqykJDFJHDQn1Z-V-19">
          <mxGeometry width="50" height="50" relative="1" as="geometry">
            <mxPoint x="1246" y="226" as="sourcePoint" />
            <mxPoint x="1366" y="152" as="targetPoint" />
          </mxGeometry>
        </mxCell>
        <mxCell id="mKCezqykJDFJHDQn1Z-V-49" value="" style="endArrow=classic;html=1;rounded=0;exitX=0.5;exitY=0;exitDx=0;exitDy=0;entryX=0.5;entryY=1;entryDx=0;entryDy=0;" edge="1" parent="1" source="mKCezqykJDFJHDQn1Z-V-15" target="mKCezqykJDFJHDQn1Z-V-13">
          <mxGeometry width="50" height="50" relative="1" as="geometry">
            <mxPoint x="321" y="143" as="sourcePoint" />
            <mxPoint x="441" y="69" as="targetPoint" />
          </mxGeometry>
        </mxCell>
        <mxCell id="mKCezqykJDFJHDQn1Z-V-50" value="" style="endArrow=classic;html=1;rounded=0;exitX=0.5;exitY=0;exitDx=0;exitDy=0;entryX=0.5;entryY=1;entryDx=0;entryDy=0;" edge="1" parent="1" source="mKCezqykJDFJHDQn1Z-V-13" target="mKCezqykJDFJHDQn1Z-V-3">
          <mxGeometry width="50" height="50" relative="1" as="geometry">
            <mxPoint x="331" y="153" as="sourcePoint" />
            <mxPoint x="451" y="79" as="targetPoint" />
          </mxGeometry>
        </mxCell>
        <mxCell id="mKCezqykJDFJHDQn1Z-V-51" value="" style="endArrow=classic;html=1;rounded=0;exitX=0.5;exitY=0;exitDx=0;exitDy=0;entryX=0.5;entryY=1;entryDx=0;entryDy=0;" edge="1" parent="1" source="tkmbO6Z0D_rgaQslbpw0-1" target="hXy3NdqEf34I_91X7ZeJ-1">
          <mxGeometry width="50" height="50" relative="1" as="geometry">
            <mxPoint x="341" y="163" as="sourcePoint" />
            <mxPoint x="461" y="89" as="targetPoint" />
          </mxGeometry>
        </mxCell>
        <mxCell id="mKCezqykJDFJHDQn1Z-V-52" value="" style="endArrow=classic;html=1;rounded=0;exitX=0.5;exitY=0;exitDx=0;exitDy=0;entryX=0.25;entryY=1;entryDx=0;entryDy=0;" edge="1" parent="1" source="mKCezqykJDFJHDQn1Z-V-37" target="mKCezqykJDFJHDQn1Z-V-19">
          <mxGeometry width="50" height="50" relative="1" as="geometry">
            <mxPoint x="1256" y="236" as="sourcePoint" />
            <mxPoint x="1376" y="162" as="targetPoint" />
          </mxGeometry>
        </mxCell>
        <mxCell id="mKCezqykJDFJHDQn1Z-V-53" value="" style="endArrow=classic;html=1;rounded=0;exitX=0.5;exitY=0;exitDx=0;exitDy=0;entryX=0.5;entryY=1;entryDx=0;entryDy=0;" edge="1" parent="1" source="mKCezqykJDFJHDQn1Z-V-31" target="mKCezqykJDFJHDQn1Z-V-35">
          <mxGeometry width="50" height="50" relative="1" as="geometry">
            <mxPoint x="1266" y="246" as="sourcePoint" />
            <mxPoint x="1386" y="172" as="targetPoint" />
          </mxGeometry>
        </mxCell>
      </root>
    </mxGraphModel>
  </diagram>
</mxfile>
